<mxfile host="app.diagrams.net" agent="Mozilla/5.0 (Windows NT 10.0; Win64; x64) AppleWebKit/537.36 (KHTML, like Gecko) Chrome/131.0.0.0 Safari/537.36" version="25.0.3">
  <diagram name="Página-1" id="OjLRqPmFeTSvFeKU1rMn">
    <mxGraphModel dx="1434" dy="851" grid="1" gridSize="10" guides="1" tooltips="1" connect="1" arrows="1" fold="1" page="1" pageScale="1" pageWidth="827" pageHeight="1169" background="#FFFFFF" math="0" shadow="0">
      <root>
        <mxCell id="0" />
        <mxCell id="1" parent="0" />
        <mxCell id="A-yqSOXRcWET_h5C79ZD-1" value="INICIO" style="ellipse;whiteSpace=wrap;html=1;" parent="1" vertex="1">
          <mxGeometry x="315" y="30" width="120" height="80" as="geometry" />
        </mxCell>
        <mxCell id="A-yqSOXRcWET_h5C79ZD-4" value="¿HAY CAFÉ?" style="rhombus;whiteSpace=wrap;html=1;" parent="1" vertex="1">
          <mxGeometry x="300" y="140" width="150" height="80" as="geometry" />
        </mxCell>
        <mxCell id="A-yqSOXRcWET_h5C79ZD-10" value="PREPARAR CAFÉ" style="rounded=0;whiteSpace=wrap;html=1;" parent="1" vertex="1">
          <mxGeometry x="95" y="150" width="120" height="60" as="geometry" />
        </mxCell>
        <mxCell id="A-yqSOXRcWET_h5C79ZD-11" value="CALENTAR CAFÉ" style="rounded=0;whiteSpace=wrap;html=1;" parent="1" vertex="1">
          <mxGeometry x="520" y="150" width="120" height="60" as="geometry" />
        </mxCell>
        <mxCell id="A-yqSOXRcWET_h5C79ZD-12" value="SERVIR CAFÉ" style="rounded=0;whiteSpace=wrap;html=1;" parent="1" vertex="1">
          <mxGeometry x="315" y="260" width="120" height="60" as="geometry" />
        </mxCell>
        <mxCell id="A-yqSOXRcWET_h5C79ZD-13" value="CONDIMENTAR" style="rounded=0;whiteSpace=wrap;html=1;" parent="1" vertex="1">
          <mxGeometry x="315" y="360" width="120" height="60" as="geometry" />
        </mxCell>
        <mxCell id="A-yqSOXRcWET_h5C79ZD-16" value="¿SUFICIENTE CONDIMIENTO?" style="rhombus;whiteSpace=wrap;html=1;" parent="1" vertex="1">
          <mxGeometry x="300" y="460" width="150" height="80" as="geometry" />
        </mxCell>
        <mxCell id="A-yqSOXRcWET_h5C79ZD-17" value="TOMAR CAFÉ" style="rounded=0;whiteSpace=wrap;html=1;" parent="1" vertex="1">
          <mxGeometry x="590" y="470" width="120" height="60" as="geometry" />
        </mxCell>
        <mxCell id="A-yqSOXRcWET_h5C79ZD-20" value="FIN" style="ellipse;whiteSpace=wrap;html=1;" parent="1" vertex="1">
          <mxGeometry x="590" y="600" width="120" height="80" as="geometry" />
        </mxCell>
        <mxCell id="A-yqSOXRcWET_h5C79ZD-21" value="" style="endArrow=classic;html=1;rounded=0;exitX=0.5;exitY=1;exitDx=0;exitDy=0;entryX=0.5;entryY=0;entryDx=0;entryDy=0;" parent="1" source="A-yqSOXRcWET_h5C79ZD-1" target="A-yqSOXRcWET_h5C79ZD-4" edge="1">
          <mxGeometry width="50" height="50" relative="1" as="geometry">
            <mxPoint x="390" y="460" as="sourcePoint" />
            <mxPoint x="170" y="250" as="targetPoint" />
          </mxGeometry>
        </mxCell>
        <mxCell id="A-yqSOXRcWET_h5C79ZD-22" value="" style="endArrow=classic;html=1;rounded=0;exitX=0;exitY=0.5;exitDx=0;exitDy=0;entryX=1;entryY=0.5;entryDx=0;entryDy=0;" parent="1" source="A-yqSOXRcWET_h5C79ZD-4" target="A-yqSOXRcWET_h5C79ZD-10" edge="1">
          <mxGeometry width="50" height="50" relative="1" as="geometry">
            <mxPoint x="230" y="280" as="sourcePoint" />
            <mxPoint x="245" y="260" as="targetPoint" />
          </mxGeometry>
        </mxCell>
        <mxCell id="A-yqSOXRcWET_h5C79ZD-25" value="" style="endArrow=classic;html=1;rounded=0;exitX=1;exitY=0.5;exitDx=0;exitDy=0;" parent="1" source="A-yqSOXRcWET_h5C79ZD-4" edge="1">
          <mxGeometry width="50" height="50" relative="1" as="geometry">
            <mxPoint x="575" y="330" as="sourcePoint" />
            <mxPoint x="520" y="180" as="targetPoint" />
          </mxGeometry>
        </mxCell>
        <mxCell id="A-yqSOXRcWET_h5C79ZD-27" value="" style="endArrow=classic;html=1;rounded=0;entryX=0;entryY=0.5;entryDx=0;entryDy=0;exitX=0.5;exitY=1;exitDx=0;exitDy=0;" parent="1" source="A-yqSOXRcWET_h5C79ZD-10" target="A-yqSOXRcWET_h5C79ZD-12" edge="1">
          <mxGeometry width="50" height="50" relative="1" as="geometry">
            <mxPoint x="310" y="500" as="sourcePoint" />
            <mxPoint x="390" y="480" as="targetPoint" />
            <Array as="points">
              <mxPoint x="155" y="290" />
            </Array>
          </mxGeometry>
        </mxCell>
        <mxCell id="A-yqSOXRcWET_h5C79ZD-31" value="" style="endArrow=classic;html=1;rounded=0;exitX=0.5;exitY=1;exitDx=0;exitDy=0;entryX=1;entryY=0.5;entryDx=0;entryDy=0;" parent="1" source="A-yqSOXRcWET_h5C79ZD-11" target="A-yqSOXRcWET_h5C79ZD-12" edge="1">
          <mxGeometry width="50" height="50" relative="1" as="geometry">
            <mxPoint x="515" y="400" as="sourcePoint" />
            <mxPoint x="450" y="400" as="targetPoint" />
            <Array as="points">
              <mxPoint x="580" y="290" />
            </Array>
          </mxGeometry>
        </mxCell>
        <mxCell id="A-yqSOXRcWET_h5C79ZD-35" value="" style="endArrow=classic;html=1;rounded=0;entryX=0;entryY=0.5;entryDx=0;entryDy=0;exitX=1;exitY=0.5;exitDx=0;exitDy=0;" parent="1" source="A-yqSOXRcWET_h5C79ZD-16" target="A-yqSOXRcWET_h5C79ZD-17" edge="1">
          <mxGeometry width="50" height="50" relative="1" as="geometry">
            <mxPoint x="255" y="660" as="sourcePoint" />
            <mxPoint x="330" y="660" as="targetPoint" />
          </mxGeometry>
        </mxCell>
        <mxCell id="A-yqSOXRcWET_h5C79ZD-37" value="" style="endArrow=classic;html=1;rounded=0;entryX=0.5;entryY=0;entryDx=0;entryDy=0;exitX=0.5;exitY=1;exitDx=0;exitDy=0;" parent="1" source="A-yqSOXRcWET_h5C79ZD-17" target="A-yqSOXRcWET_h5C79ZD-20" edge="1">
          <mxGeometry width="50" height="50" relative="1" as="geometry">
            <mxPoint x="450" y="660" as="sourcePoint" />
            <mxPoint x="530" y="660" as="targetPoint" />
          </mxGeometry>
        </mxCell>
        <mxCell id="A-yqSOXRcWET_h5C79ZD-38" value="&lt;b&gt;SI&lt;/b&gt;" style="text;html=1;align=center;verticalAlign=middle;whiteSpace=wrap;rounded=0;" parent="1" vertex="1">
          <mxGeometry x="450" y="150" width="60" height="30" as="geometry" />
        </mxCell>
        <mxCell id="A-yqSOXRcWET_h5C79ZD-40" value="&lt;b&gt;SI&lt;/b&gt;" style="text;html=1;align=center;verticalAlign=middle;whiteSpace=wrap;rounded=0;" parent="1" vertex="1">
          <mxGeometry x="455" y="450" width="60" height="30" as="geometry" />
        </mxCell>
        <mxCell id="A-yqSOXRcWET_h5C79ZD-42" value="&lt;b&gt;NO&lt;/b&gt;" style="text;html=1;align=center;verticalAlign=middle;whiteSpace=wrap;rounded=0;" parent="1" vertex="1">
          <mxGeometry x="230" y="150" width="60" height="30" as="geometry" />
        </mxCell>
        <mxCell id="A-yqSOXRcWET_h5C79ZD-44" value="&lt;b&gt;NO&lt;/b&gt;" style="text;html=1;align=center;verticalAlign=middle;whiteSpace=wrap;rounded=0;" parent="1" vertex="1">
          <mxGeometry x="245" y="450" width="60" height="30" as="geometry" />
        </mxCell>
        <mxCell id="6S7wwPT3cCa-smS3ZaAS-1" value="" style="endArrow=classic;html=1;rounded=0;exitX=0.5;exitY=1;exitDx=0;exitDy=0;entryX=0.5;entryY=0;entryDx=0;entryDy=0;" parent="1" source="A-yqSOXRcWET_h5C79ZD-12" target="A-yqSOXRcWET_h5C79ZD-13" edge="1">
          <mxGeometry width="50" height="50" relative="1" as="geometry">
            <mxPoint x="385" y="120" as="sourcePoint" />
            <mxPoint x="385" y="150" as="targetPoint" />
          </mxGeometry>
        </mxCell>
        <mxCell id="6S7wwPT3cCa-smS3ZaAS-2" value="" style="endArrow=classic;html=1;rounded=0;entryX=0;entryY=0.5;entryDx=0;entryDy=0;exitX=0;exitY=0.5;exitDx=0;exitDy=0;" parent="1" source="A-yqSOXRcWET_h5C79ZD-16" target="A-yqSOXRcWET_h5C79ZD-13" edge="1">
          <mxGeometry width="50" height="50" relative="1" as="geometry">
            <mxPoint x="130" y="400" as="sourcePoint" />
            <mxPoint x="290" y="480" as="targetPoint" />
            <Array as="points">
              <mxPoint x="130" y="500" />
              <mxPoint x="130" y="390" />
            </Array>
          </mxGeometry>
        </mxCell>
        <mxCell id="0U3nWd_i4hh6GGk-EiFl-1" value="" style="endArrow=classic;html=1;rounded=0;exitX=0.5;exitY=1;exitDx=0;exitDy=0;entryX=0.5;entryY=0;entryDx=0;entryDy=0;" edge="1" parent="1" source="A-yqSOXRcWET_h5C79ZD-13" target="A-yqSOXRcWET_h5C79ZD-16">
          <mxGeometry width="50" height="50" relative="1" as="geometry">
            <mxPoint x="385" y="330" as="sourcePoint" />
            <mxPoint x="385" y="370" as="targetPoint" />
          </mxGeometry>
        </mxCell>
      </root>
    </mxGraphModel>
  </diagram>
</mxfile>
